inDegrees=no
num_controls=7
num_derivatives=13
num_iterations=99
num_multipliers=7
num_parameters=0
num_slacks=7
num_states=26
objective=0.333868
objective_accelerations=0.037423
objective_balance=0.001368
objective_effort=0.027340
objective_height=0.266266
objective_ligament=0.001471
solver_duration=1037.664563
status=Solve_Succeeded
success=true
DataType=double
version=3
OpenSimVersion=4.5
endheader
time	/jointset/ground_pelvis/pelvis_tilt/value	/jointset/ground_pelvis/pelvis_tx/value	/jointset/ground_pelvis/pelvis_ty/value	/jointset/hip_r/hip_flexion_r/value	/jointset/hip_r/hip_adduction_r/value	/jointset/hip_r/hip_rotation_r/value	/jointset/back/lumbar_extension/value	/jointset/patellofemoral_r/patellar_flexion_r/value	/jointset/knee_r/knee_flexion_r/value	/jointset/knee_r/knee_adduction_r/value	/jointset/knee_r/knee_rotation_r/value	/jointset/ankle_r/ankle_angle_r/value	/jointset/subtalar_r/subtalar_angle_r/value	/jointset/ground_pelvis/pelvis_tilt/speed	/jointset/ground_pelvis/pelvis_tx/speed	/jointset/ground_pelvis/pelvis_ty/speed	/jointset/hip_r/hip_flexion_r/speed	/jointset/hip_r/hip_adduction_r/speed	/jointset/hip_r/hip_rotation_r/speed	/jointset/back/lumbar_extension/speed	/jointset/patellofemoral_r/patellar_flexion_r/speed	/jointset/knee_r/knee_flexion_r/speed	/jointset/knee_r/knee_adduction_r/speed	/jointset/knee_r/knee_rotation_r/speed	/jointset/ankle_r/ankle_angle_r/speed	/jointset/subtalar_r/subtalar_angle_r/speed	/forceset/tau_hip_flexion_r	/forceset/tau_hip_adduction_r	/forceset/tau_hip_rotation_r	/forceset/tau_knee_flexion_r	/forceset/tau_ankle_angle_r	/forceset/tau_subtalar_angle_r	/forceset/tau_lumbar_extension	lambda_cid13_p0	lambda_cid14_p0	lambda_cid14_p1	lambda_cid14_p2	lambda_cid14_p3	lambda_cid14_p4	lambda_cid14_p5	/jointset/ground_pelvis/pelvis_tilt/accel	/jointset/ground_pelvis/pelvis_tx/accel	/jointset/ground_pelvis/pelvis_ty/accel	/jointset/hip_r/hip_flexion_r/accel	/jointset/hip_r/hip_adduction_r/accel	/jointset/hip_r/hip_rotation_r/accel	/jointset/back/lumbar_extension/accel	/jointset/patellofemoral_r/patellar_flexion_r/accel	/jointset/knee_r/knee_flexion_r/accel	/jointset/knee_r/knee_adduction_r/accel	/jointset/knee_r/knee_rotation_r/accel	/jointset/ankle_r/ankle_angle_r/accel	/jointset/subtalar_r/subtalar_angle_r/accel	gamma_cid13_p0	gamma_cid14_p0	gamma_cid14_p1	gamma_cid14_p2	gamma_cid14_p3	gamma_cid14_p4	gamma_cid14_p5
1	-0.2803312681178548	-0.010147581033181	0.6285209730426309	1.480038926381161	-0.2380626011557418	-0.08527236419911913	-0.7853879790025092	1.516345152297556	1.516345152297524	-0.1745008663360619	0.1728753165337395	0.4362452277644527	0.1761938959655791	0.07072303337822394	0.005784357868059108	0.01644855958173003	-0.1037711584628735	-0.001292297627859927	0.001073621685829105	-0.0005889575782174331	-0.01916480876431681	-0.01916480876431683	0.008147444304564745	-0.0001615736526909515	0.01337164878728543	0.004430075445342249	-0.3603646631325739	0.03938479223051607	0.007346606725429953	-0.4363310691253794	-0.04201725781375679	0.00409577730188154	0.3712951081614211	-0.04093697316031988	-65.26362973100305	-13.66900640855773	7.193654958961102	7.41477101679633	-770.6910821751218	59.22004885031473	1.377808549908073	0.1640351649851652	1.835080676909607	-5.568081523028276	0.2062769005071549	-0.3366201231215325	-0.04959564450481145	-4.973401904053658	-4.973401904053978	0.9996720579915885	0.04232420874604563	-0.9696685750976274	-0.1023035565238176	1.681270124975073e-09	-1.715255352750083e-09	1.190227285704434e-08	9.342423050844176e-09	6.231588369587212e-09	-8.467553170725102e-09	2.269376566553382e-08
1.01	-0.2795558639200361	-0.0100813858395982	0.6287772094463814	1.478723262036407	-0.238065314175303	-0.08527574851866723	-0.7853945254594532	1.515904945542851	1.515904945542846	-0.1743665030608569	0.1728755855193673	0.4363305484802018	0.176232861139447	0.08435285461432526	0.007473437773541652	0.03481092766276105	-0.1594065562748626	0.0007450132853360039	-0.001737171790311769	-0.0006143268968904997	-0.06890768871497159	-0.06890768871497389	0.01875498683367509	0.000217355485873874	0.003707395901163936	0.003361230164669319	-0.3609404519453753	0.03945093261101109	0.007458897416476261	-0.4367745046260368	-0.04185672726545607	0.004030602256023046	0.3721911341589029	-0.04093657366329748	-65.26556433497596	-13.71020587768614	7.214564556412562	7.14488597328762	-771.5565680056202	59.24461517334194	1.354828561663685	0.1741592633848846	1.838642352816798	-5.567993807360899	0.2017627117570457	-0.2513081719759964	0.03689346229565704	-4.979404486395386	-4.979404486395417	1.095760850671946	0.03598854281627711	-0.9625692622714901	-0.1094219983585549	7.269578510292666e-09	4.12422188692854e-09	4.064780588144233e-08	4.958071585655972e-08	6.601426567521471e-09	-1.73852409564967e-08	9.171403241091415e-08
1.02	-0.2786443095796164	-0.009997736874949483	0.6292174350267655	1.476849898734116	-0.2380477931807254	-0.08530684061540057	-0.7853981454019487	1.514966375299475	1.514966375299497	-0.17412517126028	0.1728797060516627	0.4363196735440723	0.1762610884636046	0.09795306189852677	0.009275112081241739	0.05324639490845164	-0.2153109499699218	0.002754505199780037	-0.00446793375107657	-3.654701792224922e-06	-0.1188375064985871	-0.1188375064985863	0.0295411493748317	0.0006087356806208248	-0.005867481661039039	0.002282505503216988	-0.3615162407581868	0.03951707299150973	0.007571188107479337	-0.4372179401266997	-0.04169619671715338	0.003965427210173344	0.3730871601563754	-0.04094241660139483	-65.2743452404919	-13.74711457105892	7.228519333229918	6.872004287820326	-772.5414083852446	59.30741642527776	1.371885759528041	0.1865540454287685	1.849700509841531	-5.621880699642378	0.2007131007567515	-0.3206138200463516	0.07761265825009195	-5.010789470645759	-5.010789470644998	1.035396060400817	0.04481441998247697	-0.9517935103137342	-0.1042794326796445	1.312737195532721e-08	1.484212069045738e-08	7.444153547315961e-08	9.534800970624411e-08	-2.335292665854399e-09	-2.286940239113336e-08	1.710704881453031e-07
1.03	-0.2775973108615455	-0.009895585323948394	0.6298422117948357	1.474416969982434	-0.2380103070621785	-0.08536494810527889	-0.785391644576786	1.513527708351006	1.513527708351064	-0.1737752356978336	0.1728878200017863	0.4362132150205316	0.1762783548888128	0.1114001868797684	0.01116641769152368	0.07170433724843071	-0.2712372177098656	0.004738963383381369	-0.007149679104798305	0.001494122476970085	-0.1689137105222235	-0.1689137105222162	0.04046216371512845	0.00101751450022209	-0.01543744174313709	0.001156634223576378	-0.3623679108755037	0.03967248501113832	0.007674492774218343	-0.4367011904668767	-0.04264798021202357	0.003996406699649131	0.3741963429829155	-0.04096476208841062	-65.61864873705417	-13.76992006631819	7.2047128494553	6.975254287595921	-773.2240414520721	59.29756604069207	1.324157319572475	0.1920994266859395	1.843142180784069	-5.572357157315052	0.1967670224544442	-0.241360602720764	0.2144056578874466	-5.008713800350254	-5.008713800349799	1.122880585743713	0.03946676844998886	-0.9615799352787093	-0.1188289478692858	1.898791524790988e-08	2.560979930586226e-08	1.082867772747475e-07	1.411717219339282e-07	-1.136697677097839e-08	-2.831852784259516e-08	2.505324151959065e-07
1.04	-0.276417234603231	-0.009774184595272878	0.6306514282032472	1.47142590708412	-0.2379530853927367	-0.08544975419063401	-0.7853644568977916	1.511587743775876	1.511587743775973	-0.1733156046989982	0.1729001331712051	0.4360106603605238	0.1762839450067722	0.1245685699470166	0.0131249476161277	0.09013432297671396	-0.3269377792956009	0.00670161537868753	-0.009807652845946317	0.004133716063649231	-0.2190970318309674	-0.2190970318309589	0.05148023665140935	0.00144857953986428	-0.02508670895006902	-5.275594658399601e-05	-0.3632195809928435	0.03982789703076475	0.007777797440947152	-0.4361844408070552	-0.04359976370689026	0.004027386189122872	0.3753055258094349	-0.04099343731216733	-65.96993395667053	-13.78832575414307	7.173782530634468	7.073841854745583	-774.0297720922928	59.32644480842877	1.316137376729314	0.1999989082932249	1.844109187502369	-5.576739468800695	0.1963518630977074	-0.3158594975316179	0.3059759398330579	-5.032212927667244	-5.032212927667535	1.054807779597638	0.04927166399066543	-0.9676549352804334	-0.1209832107835774	2.418348324013207e-08	3.359970193525738e-08	1.371131780189602e-07	1.820901926140549e-07	-1.615757044916455e-08	-3.402590953416015e-08	3.18105561940065e-07
1.05	-0.2751067695477361	-0.009632822042026652	0.6316447325365661	1.467879006668835	-0.2378763617978107	-0.08556100199764238	-0.7853051611718063	1.50914556016233	1.509145560162409	-0.1727453166321599	0.1729168350114236	0.4357112209347981	0.1762769975690733	0.1374853940443197	0.01516284059027878	0.1085145469681038	-0.382398587351348	0.008638152933340739	-0.01243056773134286	0.007919084437691499	-0.2693426168665877	-0.2693426168665687	0.06259793288770665	0.001890654691650805	-0.03481418414055559	-0.001353012485914479	-0.3638350790420632	0.03995909139646567	0.007938271239339184	-0.4353752373291978	-0.04446060194391779	0.004045171954833126	0.3762607894203469	-0.04102736177733701	-66.26704114878945	-13.79981751746815	7.138143422976659	7.119626397602135	-774.4735683535993	59.31789928019749	1.273606588270355	0.2079719154342768	1.833171491112518	-5.524185821921999	0.1915907957639496	-0.2337878687036425	0.4438655808575802	-5.02117611366812	-5.021176113666376	1.143328077960672	0.04156506119193201	-0.9772444967116544	-0.1369364915990731	2.935827075421799e-08	4.150279906508971e-08	1.6578273998013e-07	2.228553744958204e-07	-2.081563005150893e-08	-3.974136173322836e-08	3.853071842996472e-07
1.06	-0.2736683059188593	-0.009470623074347276	0.63282147760703	1.463778811303396	-0.2377804156085148	-0.0856981350304394	-0.785202202103114	1.506200831733996	1.506200831734059	-0.1720632360964907	0.1729379355272426	0.4353141166200083	0.1762565696427629	0.150168284623203	0.0172922305027585	0.1268224704056949	-0.4375967693255091	0.01054613425258697	-0.01498469800313714	0.01286638459844118	-0.3196059947885563	-0.3196059947885255	0.07383873041659957	0.002328314660208302	-0.0446196867621971	-0.002748853668895857	-0.3644505770913045	0.04009028576216401	0.008098745037716799	-0.4345660338513422	-0.04532144018094236	0.004062957720540377	0.3772160530312388	-0.04106782722154679	-66.57130483816816	-13.80683180200535	7.095244410229121	7.160269529028846	-775.0442084398592	59.34840774655044	1.269350673045366	0.2182982959589782	1.829649076742635	-5.524214252483496	0.1906406160163078	-0.3021025748111714	0.5383622971743707	-5.035771504936915	-5.035771504936924	1.079428038116758	0.04838862734486254	-0.9832604215113845	-0.1401001395137458	3.411453766520441e-08	4.888469593771489e-08	1.928371169343198e-07	2.609877030772605e-07	-2.546814059335296e-08	-4.503751675747334e-08	4.469084615938465e-07
